<mxfile host="www.draw.io" modified="2020-03-08T08:23:05.418Z" agent="Mozilla/5.0 (X11; Linux x86_64) AppleWebKit/537.36 (KHTML, like Gecko) Chrome/80.0.3987.122 Safari/537.36" etag="N309mHqXeb5U91sRfVco" version="12.8.1" type="github">
  <diagram id="7Uzv1dr3O8Tn-Kqpd4Ow" name="Page-1">
    <mxGraphModel dx="1422" dy="692" grid="1" gridSize="10" guides="1" tooltips="1" connect="1" arrows="1" fold="1" page="1" pageScale="1" pageWidth="827" pageHeight="1169" math="0" shadow="0">
      <root>
        <mxCell id="0" />
        <mxCell id="1" parent="0" />
        <mxCell id="8G06ZQxfJn5-IABWF8aw-1" value="" style="endArrow=none;dashed=1;html=1;" parent="1" edge="1">
          <mxGeometry width="50" height="50" relative="1" as="geometry">
            <mxPoint x="40" y="160" as="sourcePoint" />
            <mxPoint x="880" y="160" as="targetPoint" />
          </mxGeometry>
        </mxCell>
        <mxCell id="8G06ZQxfJn5-IABWF8aw-2" value="FL360" style="text;html=1;align=center;verticalAlign=middle;resizable=0;points=[];labelBackgroundColor=#ffffff;" parent="8G06ZQxfJn5-IABWF8aw-1" vertex="1" connectable="0">
          <mxGeometry x="-0.485" y="-2" relative="1" as="geometry">
            <mxPoint x="-196" y="8" as="offset" />
          </mxGeometry>
        </mxCell>
        <mxCell id="8G06ZQxfJn5-IABWF8aw-3" value="" style="endArrow=none;dashed=1;html=1;" parent="1" edge="1">
          <mxGeometry width="50" height="50" relative="1" as="geometry">
            <mxPoint x="40" y="240" as="sourcePoint" />
            <mxPoint x="880" y="240" as="targetPoint" />
          </mxGeometry>
        </mxCell>
        <mxCell id="8G06ZQxfJn5-IABWF8aw-4" value="FL340" style="text;html=1;align=center;verticalAlign=middle;resizable=0;points=[];labelBackgroundColor=#ffffff;" parent="8G06ZQxfJn5-IABWF8aw-3" vertex="1" connectable="0">
          <mxGeometry x="-0.485" y="-2" relative="1" as="geometry">
            <mxPoint x="-196" y="8" as="offset" />
          </mxGeometry>
        </mxCell>
        <mxCell id="8G06ZQxfJn5-IABWF8aw-7" value="" style="curved=1;endArrow=classic;html=1;strokeColor=#007FFF;" parent="1" edge="1">
          <mxGeometry width="50" height="50" relative="1" as="geometry">
            <mxPoint x="740" y="350" as="sourcePoint" />
            <mxPoint x="410" y="220" as="targetPoint" />
            <Array as="points">
              <mxPoint x="650" y="120" />
              <mxPoint x="450" y="210" />
            </Array>
          </mxGeometry>
        </mxCell>
        <mxCell id="8G06ZQxfJn5-IABWF8aw-8" value="&quot;traffic traffic&quot; TA&lt;br&gt;21:34:42" style="rounded=1;whiteSpace=wrap;html=1;strokeColor=#007FFF;fillColor=none;" parent="1" vertex="1">
          <mxGeometry x="760" y="40" width="120" height="40" as="geometry" />
        </mxCell>
        <mxCell id="8G06ZQxfJn5-IABWF8aw-11" value="ATC: &quot;Climb to FL360&quot;&lt;br&gt;21:26:36" style="rounded=1;whiteSpace=wrap;html=1;strokeColor=#007FFF;fillColor=none;" parent="1" vertex="1">
          <mxGeometry x="700" y="180" width="140" height="40" as="geometry" />
        </mxCell>
        <mxCell id="8G06ZQxfJn5-IABWF8aw-12" value="&quot;descend descend&quot; RA&lt;br&gt;21:34:56" style="rounded=1;whiteSpace=wrap;html=1;strokeColor=#007FFF;fillColor=none;" parent="1" vertex="1">
          <mxGeometry x="600" y="40" width="150" height="40" as="geometry" />
        </mxCell>
        <mxCell id="8G06ZQxfJn5-IABWF8aw-13" value="" style="endArrow=classic;html=1;strokeColor=#007FFF;exitX=0.5;exitY=1;exitDx=0;exitDy=0;" parent="1" source="8G06ZQxfJn5-IABWF8aw-11" edge="1">
          <mxGeometry width="50" height="50" relative="1" as="geometry">
            <mxPoint x="510" y="350" as="sourcePoint" />
            <mxPoint x="730" y="320" as="targetPoint" />
          </mxGeometry>
        </mxCell>
        <mxCell id="8G06ZQxfJn5-IABWF8aw-14" value="" style="endArrow=classic;html=1;strokeColor=#007FFF;exitX=0.5;exitY=1;exitDx=0;exitDy=0;" parent="1" source="8G06ZQxfJn5-IABWF8aw-8" edge="1">
          <mxGeometry width="50" height="50" relative="1" as="geometry">
            <mxPoint x="800" y="230" as="sourcePoint" />
            <mxPoint x="600" y="160" as="targetPoint" />
          </mxGeometry>
        </mxCell>
        <mxCell id="8G06ZQxfJn5-IABWF8aw-15" value="" style="endArrow=classic;html=1;strokeColor=#007FFF;exitX=0.5;exitY=1;exitDx=0;exitDy=0;" parent="1" source="8G06ZQxfJn5-IABWF8aw-12" edge="1">
          <mxGeometry width="50" height="50" relative="1" as="geometry">
            <mxPoint x="670" y="90" as="sourcePoint" />
            <mxPoint x="570" y="160" as="targetPoint" />
          </mxGeometry>
        </mxCell>
        <mxCell id="8G06ZQxfJn5-IABWF8aw-16" value="&quot;increase descent&quot; RA&lt;br&gt;21:35:10" style="rounded=1;whiteSpace=wrap;html=1;strokeColor=#007FFF;fillColor=none;" parent="1" vertex="1">
          <mxGeometry x="440" y="40" width="150" height="40" as="geometry" />
        </mxCell>
        <mxCell id="8G06ZQxfJn5-IABWF8aw-18" value="" style="endArrow=classic;html=1;strokeColor=#007FFF;exitX=0.5;exitY=1;exitDx=0;exitDy=0;" parent="1" source="8G06ZQxfJn5-IABWF8aw-16" edge="1">
          <mxGeometry width="50" height="50" relative="1" as="geometry">
            <mxPoint x="380" y="80" as="sourcePoint" />
            <mxPoint x="480" y="200" as="targetPoint" />
          </mxGeometry>
        </mxCell>
        <mxCell id="8G06ZQxfJn5-IABWF8aw-20" value="" style="curved=1;endArrow=classic;html=1;strokeColor=#FF3333;" parent="1" edge="1">
          <mxGeometry width="50" height="50" relative="1" as="geometry">
            <mxPoint x="90" y="160" as="sourcePoint" />
            <mxPoint x="420" y="220" as="targetPoint" />
            <Array as="points">
              <mxPoint x="210" y="160" />
              <mxPoint x="330" y="160" />
            </Array>
          </mxGeometry>
        </mxCell>
        <mxCell id="8G06ZQxfJn5-IABWF8aw-21" value="&quot;traffic traffic&quot; RA&lt;br&gt;21:34:42" style="rounded=1;whiteSpace=wrap;html=1;strokeColor=#FF3333;fillColor=none;" parent="1" vertex="1">
          <mxGeometry x="40" y="40" width="150" height="40" as="geometry" />
        </mxCell>
        <mxCell id="8G06ZQxfJn5-IABWF8aw-22" value="" style="endArrow=classic;html=1;strokeColor=#FF3333;exitX=0.5;exitY=1;exitDx=0;exitDy=0;" parent="1" source="8G06ZQxfJn5-IABWF8aw-21" edge="1">
          <mxGeometry width="50" height="50" relative="1" as="geometry">
            <mxPoint x="115" y="250" as="sourcePoint" />
            <mxPoint x="240" y="160" as="targetPoint" />
          </mxGeometry>
        </mxCell>
        <mxCell id="8G06ZQxfJn5-IABWF8aw-27" value="" style="endArrow=none;dashed=1;html=1;" parent="1" edge="1">
          <mxGeometry width="50" height="50" relative="1" as="geometry">
            <mxPoint x="40" y="320" as="sourcePoint" />
            <mxPoint x="880" y="320" as="targetPoint" />
          </mxGeometry>
        </mxCell>
        <mxCell id="8G06ZQxfJn5-IABWF8aw-28" value="FL320" style="text;html=1;align=center;verticalAlign=middle;resizable=0;points=[];labelBackgroundColor=#ffffff;" parent="8G06ZQxfJn5-IABWF8aw-27" vertex="1" connectable="0">
          <mxGeometry x="-0.485" y="-2" relative="1" as="geometry">
            <mxPoint x="-196" y="8" as="offset" />
          </mxGeometry>
        </mxCell>
        <mxCell id="8G06ZQxfJn5-IABWF8aw-29" value="ATC: &quot;descend to FL350&quot;&lt;br&gt;21:34:49" style="rounded=1;whiteSpace=wrap;html=1;strokeColor=#FF3333;fillColor=none;" parent="1" vertex="1">
          <mxGeometry x="200" y="40" width="150" height="40" as="geometry" />
        </mxCell>
        <mxCell id="8G06ZQxfJn5-IABWF8aw-30" value="" style="endArrow=classic;html=1;strokeColor=#FF3333;exitX=0.5;exitY=1;exitDx=0;exitDy=0;" parent="1" source="8G06ZQxfJn5-IABWF8aw-29" edge="1">
          <mxGeometry width="50" height="50" relative="1" as="geometry">
            <mxPoint x="420" y="290" as="sourcePoint" />
            <mxPoint x="280" y="160" as="targetPoint" />
          </mxGeometry>
        </mxCell>
        <mxCell id="8G06ZQxfJn5-IABWF8aw-31" value="&quot;climb climb&quot; RA&lt;br&gt;21:34:56" style="rounded=1;whiteSpace=wrap;html=1;strokeColor=#FF3333;fillColor=none;" parent="1" vertex="1">
          <mxGeometry x="80" y="270" width="150" height="40" as="geometry" />
        </mxCell>
        <mxCell id="8G06ZQxfJn5-IABWF8aw-32" value="" style="endArrow=classic;html=1;strokeColor=#FF3333;exitX=0.5;exitY=0;exitDx=0;exitDy=0;" parent="1" source="8G06ZQxfJn5-IABWF8aw-31" edge="1">
          <mxGeometry width="50" height="50" relative="1" as="geometry">
            <mxPoint x="420" y="290" as="sourcePoint" />
            <mxPoint x="330" y="170" as="targetPoint" />
          </mxGeometry>
        </mxCell>
        <mxCell id="8G06ZQxfJn5-IABWF8aw-33" value="ATC: &quot;expedite descend to FL350&quot;&lt;br&gt;21:35:03" style="rounded=1;whiteSpace=wrap;html=1;strokeColor=#FF3333;fillColor=none;" parent="1" vertex="1">
          <mxGeometry x="240" y="270" width="240" height="40" as="geometry" />
        </mxCell>
        <mxCell id="8G06ZQxfJn5-IABWF8aw-34" value="" style="endArrow=classic;html=1;strokeColor=#FF3333;exitX=0.5;exitY=0;exitDx=0;exitDy=0;" parent="1" source="8G06ZQxfJn5-IABWF8aw-33" edge="1">
          <mxGeometry width="50" height="50" relative="1" as="geometry">
            <mxPoint x="420" y="290" as="sourcePoint" />
            <mxPoint x="350" y="180" as="targetPoint" />
          </mxGeometry>
        </mxCell>
        <mxCell id="8G06ZQxfJn5-IABWF8aw-35" value="&quot;increase climb&quot; RA&lt;br&gt;21:35:24" style="rounded=1;whiteSpace=wrap;html=1;strokeColor=#FF3333;fillColor=none;" parent="1" vertex="1">
          <mxGeometry x="320" y="100" width="150" height="40" as="geometry" />
        </mxCell>
        <mxCell id="8G06ZQxfJn5-IABWF8aw-36" value="" style="endArrow=classic;html=1;strokeColor=#FF3333;exitX=0.5;exitY=1;exitDx=0;exitDy=0;" parent="1" source="8G06ZQxfJn5-IABWF8aw-35" edge="1">
          <mxGeometry width="50" height="50" relative="1" as="geometry">
            <mxPoint x="480" y="440" as="sourcePoint" />
            <mxPoint x="400" y="210" as="targetPoint" />
          </mxGeometry>
        </mxCell>
        <mxCell id="dxMQkwi4DYhekvxn-iRf-1" value="&lt;font color=&quot;#3399ff&quot;&gt;B757&lt;/font&gt;" style="text;html=1;align=center;verticalAlign=middle;resizable=0;points=[];autosize=1;" vertex="1" parent="1">
          <mxGeometry x="655" y="260" width="40" height="20" as="geometry" />
        </mxCell>
        <mxCell id="dxMQkwi4DYhekvxn-iRf-2" value="&lt;font color=&quot;#ff3333&quot;&gt;TU154M&lt;/font&gt;" style="text;html=1;align=center;verticalAlign=middle;resizable=0;points=[];autosize=1;" vertex="1" parent="1">
          <mxGeometry x="80" y="140" width="60" height="20" as="geometry" />
        </mxCell>
      </root>
    </mxGraphModel>
  </diagram>
</mxfile>
